<svg width="32" height="36" viewBox="0 0 32 36" fill="none" xmlns="http://www.w3.org/2000/svg">
<path d="M22.6667 4.66663C26.2917 4.6868 28.2549 4.84756 29.5355 6.1282C31 7.59266 31 9.94968 31 14.6637V24.6637C31 29.3778 31 31.7348 29.5355 33.1993C28.0711 34.6637 25.714 34.6637 21 34.6637H11C6.28595 34.6637 3.92893 34.6637 2.46447 33.1993C1 31.7348 1 29.3778 1 24.6637V14.6637C1 9.94968 1 7.59266 2.46447 6.1282C3.74511 4.84756 5.70829 4.6868 9.33333 4.66663" stroke="#5F6573" stroke-width="1.4"/>
<path d="M11 20.3334L13.8571 23L21 16.3334" stroke="#2952FF" stroke-width="1.4" stroke-linecap="round" stroke-linejoin="round"/>
<path d="M9.33325 3.83337C9.33325 2.45266 10.4525 1.33337 11.8333 1.33337H20.1666C21.5473 1.33337 22.6666 2.45266 22.6666 3.83337V5.50004C22.6666 6.88075 21.5473 8.00004 20.1666 8.00004H11.8333C10.4525 8.00004 9.33325 6.88075 9.33325 5.50004V3.83337Z" stroke="#2952FF" stroke-width="1.4" stroke-linejoin="round"/>
</svg>
