<svg width="40" height="40" viewBox="0 0 40 40" fill="none" xmlns="http://www.w3.org/2000/svg">
<g clip-path="url(#clip0_305_408)">
<g filter="url(#filter0_i_305_408)">
<path d="M40 20C40 31.0457 31.0457 40 20 40C8.9543 40 0 31.0457 0 20C0 8.9543 8.9543 0 20 0C31.0457 0 40 8.9543 40 20Z" fill="url(#paint0_linear_305_408)"/>
</g>
<path d="M12.2 15.2H17.4" stroke="white" stroke-width="1.5" stroke-linecap="round" stroke-linejoin="round"/>
<path d="M32.9999 18.45C32.9999 18.3494 32.9999 17.7574 32.9969 17.715C32.951 17.064 32.3925 16.5455 31.6915 16.5028C31.6457 16.5 31.5916 16.5 31.4832 16.5H28.0999C25.7803 16.5 23.8999 18.2461 23.8999 20.4C23.8999 22.5539 25.7803 24.3 28.0999 24.3H31.4832C31.5916 24.3 31.6457 24.3 31.6915 24.2972C32.3925 24.2545 32.951 23.736 32.9969 23.085C32.9999 23.0426 32.9999 22.4506 32.9999 22.35" stroke="white" stroke-width="1.5" stroke-linecap="round"/>
<circle cx="27.8" cy="20.4" r="1.3" fill="white"/>
<path d="M21.3 10C26.2026 10 28.6539 10 30.177 11.523C31.2276 12.5737 31.5535 14.066 31.6545 16.5M17.4 30.8H21.3C26.2026 30.8 28.6539 30.8 30.177 29.277C31.2276 28.2263 31.5535 26.734 31.6545 24.3M16.1 10.0012C12.0514 10.0131 9.90507 10.141 8.52304 11.523C7 13.0461 7 15.4974 7 20.4C7 25.3026 7 27.7539 8.52305 29.277C9.37218 30.1261 10.5099 30.5018 12.2 30.6681" stroke="white" stroke-width="1.5" stroke-linecap="round"/>
</g>
<defs>
<filter id="filter0_i_305_408" x="0" y="0" width="40" height="40" filterUnits="userSpaceOnUse" color-interpolation-filters="sRGB">
<feFlood flood-opacity="0" result="BackgroundImageFix"/>
<feBlend mode="normal" in="SourceGraphic" in2="BackgroundImageFix" result="shape"/>
<feColorMatrix in="SourceAlpha" type="matrix" values="0 0 0 0 0 0 0 0 0 0 0 0 0 0 0 0 0 0 127 0" result="hardAlpha"/>
<feOffset/>
<feGaussianBlur stdDeviation="4"/>
<feComposite in2="hardAlpha" operator="arithmetic" k2="-1" k3="1"/>
<feColorMatrix type="matrix" values="0 0 0 0 1 0 0 0 0 1 0 0 0 0 1 0 0 0 0.8 0"/>
<feBlend mode="normal" in2="shape" result="effect1_innerShadow_305_408"/>
</filter>
<linearGradient id="paint0_linear_305_408" x1="20" y1="0" x2="20" y2="40" gradientUnits="userSpaceOnUse">
<stop stop-color="#6966FF"/>
<stop offset="1" stop-color="#9D68F3"/>
</linearGradient>
<clipPath id="clip0_305_408">
<rect width="40" height="40" fill="white"/>
</clipPath>
</defs>
</svg>
