<svg width="23" height="22" viewBox="0 0 23 22" fill="none" xmlns="http://www.w3.org/2000/svg">
<path d="M17.7866 8.90042V8.25453C17.7866 4.70819 15.0167 1.83331 11.5999 1.83331C8.18303 1.83331 5.41315 4.70819 5.41315 8.25453V8.90042C5.41315 9.67554 5.19209 10.4333 4.77784 11.0783L3.76268 12.6587C2.83544 14.1023 3.54331 16.0645 5.15602 16.521C9.37487 17.7152 13.8248 17.7152 18.0437 16.521C19.6564 16.0645 20.3643 14.1023 19.437 12.6587L18.4219 11.0783C18.0076 10.4333 17.7866 9.67554 17.7866 8.90042Z" stroke="#58FDCC" stroke-width="1.4"/>
<path opacity="0.5" d="M7.47485 17.4167C8.07529 19.0188 9.69544 20.1667 11.5999 20.1667C13.5043 20.1667 15.1244 19.0188 15.7249 17.4167" stroke="white" stroke-width="1.4" stroke-linecap="round"/>
<path opacity="0.5" d="M11.5999 5.5V9.16667" stroke="white" stroke-width="1.4" stroke-linecap="round"/>
</svg>
