<svg width="23" height="22" viewBox="0 0 23 22" fill="none" xmlns="http://www.w3.org/2000/svg">
<path d="M12.196 19.6054L12.7984 19.9619L12.7984 19.9619L12.196 19.6054ZM12.6929 18.7658L12.0905 18.4093L12.0905 18.4093L12.6929 18.7658ZM9.70681 18.7658L9.10442 19.1224L9.10442 19.1224L9.70681 18.7658ZM10.2037 19.6054L10.8061 19.2488L10.8061 19.2488L10.2037 19.6054ZM2.38209 14.5873L3.0288 14.3194L3.0288 14.3194L2.38209 14.5873ZM7.34032 17.4088L7.32826 18.1087L7.32826 18.1087L7.34032 17.4088ZM4.86257 17.0678L4.59469 17.7145L4.59469 17.7145L4.86257 17.0678ZM20.0177 14.5873L20.6644 14.8552L20.6644 14.8552L20.0177 14.5873ZM15.0594 17.4088L15.0473 16.7089L15.0473 16.7089L15.0594 17.4088ZM17.5372 17.0678L17.805 17.7145L17.805 17.7145L17.5372 17.0678ZM18.178 2.50871L17.8122 3.10556L17.8122 3.10556L18.178 2.50871ZM19.6911 4.02186L20.288 3.65611L20.288 3.65611L19.6911 4.02186ZM4.22175 2.50871L3.856 1.91186L3.856 1.91186L4.22175 2.50871ZM2.7086 4.02186L2.11175 3.65611L2.11175 3.65611L2.7086 4.02186ZM8.8191 17.609L9.17103 17.0039L9.17103 17.0039L8.8191 17.609ZM12.196 19.6054L12.7984 19.9619L13.2953 19.1224L12.6929 18.7658L12.0905 18.4093L11.5936 19.2488L12.196 19.6054ZM9.70681 18.7658L9.10442 19.1224L9.60135 19.9619L10.2037 19.6054L10.8061 19.2488L10.3092 18.4093L9.70681 18.7658ZM12.196 19.6054L11.5936 19.2488C11.4217 19.5392 10.978 19.5392 10.8061 19.2488L10.2037 19.6054L9.60135 19.9619C10.3153 21.1681 12.0844 21.1681 12.7984 19.9619L12.196 19.6054ZM9.82487 1.83331V2.53331H12.5749V1.83331V1.13331H9.82487V1.83331ZM20.3665 9.62498H19.6665V10.5416H20.3665H21.0665V9.62498H20.3665ZM2.0332 10.5416H2.7332V9.62498H2.0332H1.3332V10.5416H2.0332ZM2.0332 10.5416H1.3332C1.3332 11.5999 1.33282 12.4286 1.37844 13.0971C1.42448 13.7719 1.51971 14.3345 1.73537 14.8552L2.38209 14.5873L3.0288 14.3194C2.89558 13.9978 2.81637 13.6053 2.77519 13.0018C2.73358 12.392 2.7332 11.619 2.7332 10.5416H2.0332ZM7.34032 17.4088L7.35238 16.7089C6.20156 16.6891 5.60071 16.6158 5.13045 16.421L4.86257 17.0678L4.59469 17.7145C5.335 18.0211 6.17758 18.0889 7.32826 18.1087L7.34032 17.4088ZM2.38209 14.5873L1.73537 14.8552C2.2716 16.1497 3.30013 17.1782 4.59469 17.7145L4.86257 17.0678L5.13045 16.421C4.17892 16.0269 3.42294 15.2709 3.0288 14.3194L2.38209 14.5873ZM20.3665 10.5416H19.6665C19.6665 11.619 19.6662 12.392 19.6245 13.0018C19.5834 13.6053 19.5042 13.9978 19.3709 14.3194L20.0177 14.5873L20.6644 14.8552C20.88 14.3345 20.9753 13.7719 21.0213 13.0971C21.0669 12.4286 21.0665 11.5999 21.0665 10.5416H20.3665ZM15.0594 17.4088L15.0714 18.1087C16.2221 18.0889 17.0647 18.0211 17.805 17.7145L17.5372 17.0678L17.2693 16.421C16.799 16.6158 16.1982 16.6891 15.0473 16.7089L15.0594 17.4088ZM20.0177 14.5873L19.3709 14.3194C18.9768 15.2709 18.2208 16.0269 17.2693 16.421L17.5372 17.0678L17.805 17.7145C19.0996 17.1782 20.1281 16.1497 20.6644 14.8552L20.0177 14.5873ZM12.5749 1.83331V2.53331C14.0887 2.53331 15.175 2.53405 16.0221 2.6146C16.8588 2.69415 17.3896 2.84659 17.8122 3.10556L18.178 2.50871L18.5437 1.91186C17.8642 1.49544 17.0938 1.31018 16.1546 1.22088C15.2259 1.13257 14.0616 1.13331 12.5749 1.13331V1.83331ZM20.3665 9.62498H21.0665C21.0665 8.13821 21.0673 6.97398 20.979 6.04523C20.8897 5.10606 20.7044 4.33566 20.288 3.65611L19.6911 4.02186L19.0943 4.38761C19.3533 4.81021 19.5057 5.34105 19.5853 6.17774C19.6658 7.02485 19.6665 8.1111 19.6665 9.62498H20.3665ZM18.178 2.50871L17.8122 3.10556C18.3348 3.42576 18.7741 3.86509 19.0943 4.38761L19.6911 4.02186L20.288 3.65611C19.8523 2.94521 19.2546 2.34751 18.5437 1.91186L18.178 2.50871ZM9.82487 1.83331V1.13331C8.3381 1.13331 7.17387 1.13257 6.24512 1.22088C5.30595 1.31018 4.53555 1.49544 3.856 1.91186L4.22175 2.50871L4.5875 3.10556C5.0101 2.84659 5.54094 2.69415 6.37763 2.6146C7.22474 2.53405 8.31099 2.53331 9.82487 2.53331V1.83331ZM2.0332 9.62498H2.7332C2.7332 8.1111 2.73394 7.02485 2.81449 6.17774C2.89404 5.34105 3.04648 4.81021 3.30545 4.38761L2.7086 4.02186L2.11175 3.65611C1.69533 4.33566 1.51007 5.10606 1.42077 6.04523C1.33246 6.97398 1.3332 8.13821 1.3332 9.62498H2.0332ZM4.22175 2.50871L3.856 1.91186C3.1451 2.34751 2.5474 2.94521 2.11175 3.65611L2.7086 4.02186L3.30545 4.38761C3.62565 3.86509 4.06498 3.42576 4.5875 3.10556L4.22175 2.50871ZM9.70681 18.7658L10.3092 18.4093C10.1232 18.095 9.95948 17.817 9.80019 17.5984C9.63229 17.3681 9.43915 17.1598 9.17103 17.0039L8.8191 17.609L8.46716 18.2141C8.50859 18.2382 8.5666 18.2828 8.6688 18.423C8.77962 18.5751 8.90498 18.7854 9.10442 19.1224L9.70681 18.7658ZM7.34032 17.4088L7.32826 18.1087C7.73099 18.1156 7.98526 18.1207 8.17889 18.1422C8.35954 18.1622 8.42803 18.1913 8.46716 18.2141L8.8191 17.609L9.17103 17.0039C8.9006 16.8466 8.61945 16.7824 8.33297 16.7507C8.05947 16.7204 7.72912 16.7154 7.35238 16.7089L7.34032 17.4088ZM12.6929 18.7658L13.2953 19.1224C13.4947 18.7854 13.6201 18.5751 13.7309 18.423C13.8331 18.2828 13.8911 18.2382 13.9325 18.2141L13.5806 17.609L13.2287 17.0039C12.9605 17.1598 12.7674 17.3681 12.5995 17.5984C12.4402 17.817 12.2765 18.095 12.0905 18.4093L12.6929 18.7658ZM15.0594 17.4088L15.0473 16.7089C14.6706 16.7154 14.3402 16.7204 14.0667 16.7507C13.7803 16.7824 13.4991 16.8466 13.2287 17.0039L13.5806 17.609L13.9325 18.2141C13.9717 18.1913 14.0402 18.1622 14.2208 18.1422C14.4144 18.1207 14.6687 18.1156 15.0714 18.1087L15.0594 17.4088Z" fill="#58FDCC"/>
<path opacity="0.5" d="M7.5332 8.25H14.8665" stroke="white" stroke-width="1.4" stroke-linecap="round"/>
<path opacity="0.5" d="M7.5332 11.4583H12.5749" stroke="white" stroke-width="1.4" stroke-linecap="round"/>
</svg>
