<svg width="23" height="22" viewBox="0 0 23 22" fill="none" xmlns="http://www.w3.org/2000/svg">
<path d="M12.1333 3V5.13333C12.1333 7.14466 12.1333 8.15032 12.654 8.77516C13.1747 9.4 14.0128 9.4 15.6889 9.4H19.0666" stroke="#00B084" stroke-width="1.4"/>
<path d="M14.3142 4.64292L13.8459 5.16322L13.8459 5.16322L14.3142 4.64292ZM17.4812 7.49324L17.013 8.01354L17.013 8.01354L17.4812 7.49324ZM19.3231 9.52328L18.6836 9.80806L18.6836 9.80806L19.3231 9.52328ZM4.53711 18.0627L5.03209 17.5678L5.03209 17.5678L4.53711 18.0627ZM18.6626 18.0627L18.1676 17.5678L18.1676 17.5678L18.6626 18.0627ZM13.1999 19V18.3H9.99985V19V19.7H13.1999V19ZM3.59985 12.6H4.29985V9.4H3.59985H2.89985V12.6H3.59985ZM19.5999 12.2503H18.8999V12.6H19.5999H20.2999V12.2503H19.5999ZM14.3142 4.64292L13.8459 5.16322L17.013 8.01354L17.4812 7.49324L17.9495 6.97293L14.7825 4.12261L14.3142 4.64292ZM19.5999 12.2503H20.2999C20.2999 10.9085 20.314 10.0277 19.9625 9.23849L19.3231 9.52328L18.6836 9.80806C18.8857 10.2619 18.8999 10.7848 18.8999 12.2503H19.5999ZM17.4812 7.49324L17.013 8.01354C18.1023 8.99392 18.4815 9.35423 18.6836 9.80806L19.3231 9.52328L19.9625 9.23849C19.611 8.44929 18.9469 7.87058 17.9495 6.97293L17.4812 7.49324ZM10.0237 3V3.7C11.2967 3.7 11.7522 3.71081 12.1564 3.86595L12.4072 3.21241L12.658 2.55888C11.9552 2.28919 11.1907 2.3 10.0237 2.3V3ZM14.3142 4.64292L14.7825 4.12261C13.9193 3.34572 13.3607 2.82853 12.658 2.55888L12.4072 3.21241L12.1564 3.86595C12.5608 4.02113 12.9046 4.316 13.8459 5.16322L14.3142 4.64292ZM9.99985 19V18.3C8.47157 18.3 7.39578 18.2985 6.58186 18.1891C5.78807 18.0824 5.34898 17.8847 5.03209 17.5678L4.53711 18.0627L4.04214 18.5577C4.6625 19.1781 5.44628 19.449 6.39531 19.5766C7.3242 19.7015 8.51115 19.7 9.99985 19.7V19ZM3.59985 12.6H2.89985C2.89985 14.0887 2.89837 15.2757 3.02325 16.2045C3.15085 17.1536 3.42177 17.9373 4.04214 18.5577L4.53711 18.0627L5.03209 17.5678C4.7152 17.2509 4.51749 16.8118 4.41077 16.018C4.30134 15.2041 4.29985 14.1283 4.29985 12.6H3.59985ZM13.1999 19V19.7C14.6886 19.7 15.8755 19.7015 16.8044 19.5766C17.7534 19.449 18.5372 19.1781 19.1576 18.5577L18.6626 18.0627L18.1676 17.5678C17.8507 17.8847 17.4116 18.0824 16.6179 18.1891C15.8039 18.2985 14.7281 18.3 13.1999 18.3V19ZM19.5999 12.6H18.8999C18.8999 14.1283 18.8984 15.2041 18.7889 16.018C18.6822 16.8118 18.4845 17.2509 18.1676 17.5678L18.6626 18.0627L19.1576 18.5577C19.7779 17.9373 20.0489 17.1536 20.1765 16.2045C20.3013 15.2757 20.2999 14.0887 20.2999 12.6H19.5999ZM3.59985 9.4H4.29985C4.29985 7.87172 4.30134 6.79592 4.41077 5.982C4.51749 5.18822 4.7152 4.74912 5.03209 4.43223L4.53711 3.93726L4.04214 3.44228C3.42177 4.06265 3.15085 4.84643 3.02325 5.79546C2.89837 6.72435 2.89985 7.91129 2.89985 9.4H3.59985ZM10.0237 3V2.3C8.52697 2.3 7.3343 2.29853 6.40168 2.42334C5.44946 2.55079 4.66305 2.82137 4.04214 3.44228L4.53711 3.93726L5.03209 4.43223C5.34843 4.11589 5.78887 3.91784 6.5874 3.81097C7.40554 3.70147 8.48752 3.7 10.0237 3.7V3Z" fill="#5F6573"/>
<path d="M6.7998 12.6H13.1998" stroke="#00B084" stroke-width="1.4" stroke-linecap="round"/>
<path d="M6.7998 15.7999H12.1331" stroke="#00B084" stroke-width="1.4" stroke-linecap="round"/>
</svg>
