<svg width="23" height="22" viewBox="0 0 23 22" fill="none" xmlns="http://www.w3.org/2000/svg">
<path d="M3.3999 11.1631C3.3999 9.33239 3.3999 8.41702 3.81526 7.65819C4.23062 6.89937 4.98946 6.42841 6.50713 5.4865L8.10713 4.4935C9.71141 3.49783 10.5136 3 11.3999 3C12.2863 3 13.0884 3.49783 14.6927 4.4935L16.2927 5.4865C17.8103 6.42841 18.5692 6.89937 18.9845 7.65819C19.3999 8.41702 19.3999 9.33239 19.3999 11.1631V12.38C19.3999 15.5007 19.3999 17.061 18.4626 18.0305C17.5254 19 16.0169 19 12.9999 19H9.7999C6.78291 19 5.27442 19 4.33716 18.0305C3.3999 17.061 3.3999 15.5007 3.3999 12.38V11.1631Z" stroke="#5F6573" stroke-width="1.4"/>
<path d="M14.0665 15.7999H8.73315" stroke="#00B084" stroke-width="1.4" stroke-linecap="round"/>
</svg>
