<svg width="23" height="22" viewBox="0 0 23 22" fill="none" xmlns="http://www.w3.org/2000/svg">
<path opacity="0.5" d="M2.6333 11H20.9666M15.4666 11C15.4666 12.2038 15.3718 13.3958 15.1875 14.508C15.0033 15.6201 14.7332 16.6306 14.3927 17.4819C14.0522 18.3331 13.648 19.0083 13.2031 19.4689C12.7583 19.9296 12.2815 20.1667 11.8 20.1667C11.3185 20.1667 10.8417 19.9296 10.3968 19.4689C9.95193 19.0083 9.54772 18.3331 9.20724 17.4819C8.86676 16.6306 8.59668 15.6201 8.41241 14.508C8.22814 13.3958 8.1333 12.2038 8.1333 11C8.1333 9.79626 8.22814 8.60426 8.41241 7.49211C8.59668 6.37996 8.86676 5.36943 9.20724 4.51823C9.54772 3.66702 9.95194 2.99181 10.3968 2.53114C10.8417 2.07048 11.3185 1.83337 11.8 1.83337C12.2815 1.83337 12.7583 2.07048 13.2031 2.53115C13.648 2.99181 14.0522 3.66703 14.3927 4.51823C14.7332 5.36943 15.0033 6.37996 15.1875 7.49211C15.3718 8.60426 15.4666 9.79626 15.4666 11Z" stroke="white" stroke-width="1.4" stroke-linecap="round"/>
<path d="M20.9666 11C20.9666 12.2038 20.7295 13.3958 20.2689 14.508C19.8082 15.6201 19.133 16.6306 18.2818 17.4819C17.4306 18.3331 16.4201 19.0083 15.3079 19.4689C14.1957 19.9296 13.0038 20.1667 11.8 20.1667C10.5962 20.1667 9.40419 19.9296 8.29204 19.4689C7.17988 19.0083 6.16936 18.3331 5.31815 17.4819C4.46695 16.6306 3.79174 15.6201 3.33107 14.508C2.8704 13.3958 2.6333 12.2038 2.6333 11C2.6333 9.79626 2.8704 8.60426 3.33107 7.49211C3.79174 6.37996 4.46695 5.36943 5.31816 4.51823C6.16936 3.66702 7.17989 2.99181 8.29204 2.53114C9.40419 2.07048 10.5962 1.83337 11.8 1.83337C13.0038 1.83337 14.1957 2.07048 15.3079 2.53115C16.4201 2.99181 17.4306 3.66703 18.2818 4.51823C19.133 5.36943 19.8082 6.37996 20.2689 7.49211C20.7295 8.60426 20.9666 9.79626 20.9666 11L20.9666 11Z" stroke="white" stroke-width="1.4"/>
</svg>
