<svg width="23" height="22" viewBox="0 0 23 22" fill="none" xmlns="http://www.w3.org/2000/svg">
<path d="M3.70777 16.6449C4.83969 18 6.94638 18 11.1598 18H11.8402C16.0536 18 18.1603 18 19.2922 16.6449M3.70777 16.6449C2.57586 15.2898 2.9641 13.2325 3.74057 9.11784C4.29277 6.19173 4.56886 4.72868 5.61706 3.86434M3.70777 16.6449C3.70777 16.6449 3.70777 16.6449 3.70777 16.6449ZM19.2922 16.6449C20.4241 15.2898 20.0359 13.2325 19.2594 9.11784C18.7072 6.19173 18.4311 4.72868 17.3829 3.86434M19.2922 16.6449C19.2922 16.6449 19.2922 16.6449 19.2922 16.6449ZM17.3829 3.86434C16.3347 3 14.8366 3 11.8402 3H11.1598C8.16343 3 6.66526 3 5.61706 3.86434M17.3829 3.86434C17.3829 3.86434 17.3829 3.86434 17.3829 3.86434ZM5.61706 3.86434C5.61706 3.86434 5.61706 3.86434 5.61706 3.86434Z" stroke="#5F6573" stroke-width="1.4"/>
<path d="M8 6C8.50947 7.74779 9.88413 9 11.5 9C13.1159 9 14.4905 7.74779 15 6" stroke="#2952FF" stroke-width="1.4" stroke-linecap="round"/>
</svg>
