<?xml version="1.0" encoding="utf-8"?>
<!-- Generator: Adobe Illustrator 27.0.0, SVG Export Plug-In . SVG Version: 6.00 Build 0)  -->
<svg version="1.1" id="레이어_1" xmlns="http://www.w3.org/2000/svg" xmlns:xlink="http://www.w3.org/1999/xlink" x="0px"
	 y="0px" viewBox="0 0 850.4 850.4" style="enable-background:new 0 0 850.4 850.4;" xml:space="preserve">
<style type="text/css">
	.st0{fill:#2775CA;}
	.st1{fill:#FFFFFF;}
</style>
<g>
	<path class="st0" d="M425.2,850.4c235.6,0,425.2-189.6,425.2-425.2S660.8,0,425.2,0S0,189.6,0,425.2S189.6,850.4,425.2,850.4z"/>
	<path class="st1" d="M542.1,492.5c0-62-37.2-83.3-111.6-92.1c-53.1-7.1-63.8-21.3-63.8-46.1s17.7-40.7,53.1-40.7
		c31.9,0,49.6,10.6,58.5,37.2c1.8,5.3,7.1,8.9,12.4,8.9h28.3c7.1,0,12.4-5.3,12.4-12.4v-1.8c-7.1-39-39-69.1-79.7-72.6v-42.5
		c0-7.1-5.3-12.4-14.2-14.2H411c-7.1,0-12.4,5.3-14.2,14.2v40.7c-53.1,7.1-86.8,42.5-86.8,86.8c0,58.5,35.4,81.5,109.8,90.4
		c49.6,8.9,65.6,19.5,65.6,47.8c0,28.3-24.8,47.8-58.5,47.8c-46.1,0-62-19.5-67.3-46.1c-1.8-7.1-7.1-10.6-12.4-10.6h-30.1
		c-7.1,0-12.4,5.3-12.4,12.4v1.8c7.1,44.3,35.4,76.2,93.9,85v42.5c0,7.1,5.3,12.4,14.2,14.2h26.6c7.1,0,12.4-5.3,14.2-14.2v-42.5
		C506.7,577.6,542.1,540.4,542.1,492.5L542.1,492.5z"/>
	<path class="st1" d="M334.8,678.5c-138.2-49.6-209.1-203.7-157.7-340.2c26.6-74.4,85-131.1,157.7-157.7c7.1-3.5,10.6-8.9,10.6-17.7
		v-24.8c0-7.1-3.5-12.4-10.6-14.2c-1.8,0-5.3,0-7.1,1.8C159.4,178.9,67.3,357.9,120.5,526.2c31.9,99.2,108.1,175.4,207.3,207.3
		c7.1,3.5,14.2,0,15.9-7.1c1.8-1.8,1.8-3.5,1.8-7.1v-24.8C345.5,689.2,340.2,682.1,334.8,678.5z M522.6,125.8
		c-7.1-3.5-14.2,0-15.9,7.1c-1.8,1.8-1.8,3.5-1.8,7.1v24.8c0,7.1,5.3,14.2,10.6,17.7c138.2,49.6,209.1,203.7,157.7,340.2
		c-26.6,74.4-85,131.1-157.7,157.7c-7.1,3.5-10.6,8.9-10.6,17.7v24.8c0,7.1,3.5,12.4,10.6,14.2c1.8,0,5.3,0,7.1-1.8
		c168.3-53.1,260.4-232.1,207.3-400.4C698,233.9,620.1,157.7,522.6,125.8L522.6,125.8z"/>
</g>
</svg>
