<?xml version="1.0" encoding="utf-8"?>
<!-- Generator: Adobe Illustrator 27.0.0, SVG Export Plug-In . SVG Version: 6.00 Build 0)  -->
<svg version="1.1" id="레이어_1" xmlns="http://www.w3.org/2000/svg" xmlns:xlink="http://www.w3.org/1999/xlink" x="0px"
	 y="0px" viewBox="0 0 850.4 850.4" style="enable-background:new 0 0 850.4 850.4;" xml:space="preserve">
<style type="text/css">
	.st0{fill-rule:evenodd;clip-rule:evenodd;fill:#26A17B;}
	.st1{fill-rule:evenodd;clip-rule:evenodd;fill:#FFFFFF;}
</style>
<g>
	<circle class="st0" cx="425.2" cy="425.2" r="425.2"/>
	<path class="st1" d="M476.3,461.9L476.3,461.9c-2.9,0.2-18,1.1-51.6,1.1c-26.8,0-45.7-0.8-52.4-1.1v0.1
		c-103.3-4.5-180.4-22.5-180.4-44.1c0-21.5,77.1-39.5,180.4-44.1v70.3c6.8,0.5,26.1,1.6,52.8,1.6c32.1,0,48.2-1.3,51.2-1.6v-70.2
		c103.1,4.6,180,22.6,180,44.1C656.3,439.4,579.4,457.4,476.3,461.9 M476.3,366.5v-62.9h143.9v-95.9H228.4v95.9h143.9v62.8
		c-116.9,5.4-204.9,28.5-204.9,56.3c0,27.7,87.9,50.9,204.9,56.3v201.5h104V479c116.7-5.4,204.5-28.5,204.5-56.2
		S593,371.9,476.3,366.5"/>
</g>
</svg>
