<?xml version="1.0" encoding="utf-8"?>
<!-- Generator: Adobe Illustrator 27.0.0, SVG Export Plug-In . SVG Version: 6.00 Build 0)  -->
<svg version="1.1" id="레이어_1" xmlns="http://www.w3.org/2000/svg" xmlns:xlink="http://www.w3.org/1999/xlink" x="0px"
	 y="0px" viewBox="0 0 566.9 542" style="enable-background:new 0 0 566.9 542;" xml:space="preserve">
<g>
	<path d="M0.4,0h565c0,1.2-0.1,2.3,0,3.4c0.4,5.1,1,10.2,1.3,15.3c0.2,2.9,0,5.9,0,8.8c0,83.5,0,166.9,0,250.3
		c0,4.4,0.3,8.7-0.1,13.1c-0.3,2.5-1.2,4.8-2.7,6.8c-6.8,8.3-13.9,16.3-20.8,24.4c-6.9,8.2-13.6,16.5-20.5,24.6
		c-5.1,6.1-10.4,12.1-15.6,18.1c-8.1,9.6-16.2,19.2-24.3,28.8c-7.9,9.2-15.8,18.3-23.7,27.6c-5.5,6.4-10.8,13-16.3,19.5
		c-5.4,6.3-10.8,12.5-16.2,18.8c-4.1,4.8-8.2,9.7-12.3,14.6l-17,20.1c-7.9,9.3-15.8,18.7-23.7,28c-5.1,6.1-10.2,12.2-15.5,18.1
		c-1,1.1-3.3,1.6-5,1.7c-6.3,0.2-12.6,0.1-18.9,0.1H10.4c-1.8,0-3.7,0-5.5,0c-3.4-0.1-4.7-1.4-4.7-4.9c0-9,0.1-18.1,0.1-27.1
		c0-60.9,0-121.9,0-182.8c0-15.9-0.5-31.8-0.4-47.7c0.1-42.5,0.4-85,0.4-127.4c0.1-49.3,0.1-98.6,0-147.8L0.4,0z M525.7,171.8
		c0-21.2,0-42.4,0-63.6c0.1-18.3,0.2-36.5,0.3-54.8c0-3.8-1.2-5.2-5-5.2c-3.6-0.1-7.3,0-10.9,0c-48.7-0.1-97.3-0.2-146-0.3
		c-3.8,0-6.8,1-9.2,4.2c-3.7,4.7-7.6,9.1-11.5,13.6c-5.4,6.3-10.9,12.4-16.3,18.7c-5.5,6.5-10.9,13.2-16.4,19.7
		c-5.4,6.4-10.9,12.7-16.3,19.1c-8,9.4-15.9,18.7-23.9,28.1c-5.7,6.7-11.3,13.4-17,20.1c-4,4.7-7.8,9.5-11.8,14.2
		c-5.6,6.5-11.3,12.9-16.8,19.4c-9.2,10.8-18.3,21.6-27.3,32.4c-5.9,7.1-11.8,14.3-17.9,21.3c-2.3,2.6-4.9,4.5-8.8,4.5
		c-39.2-0.1-78.5-0.2-117.7-0.2c-2.5,0-5.1-0.2-7.6-0.1c-3.4,0.2-4.4,1.5-4.4,4.8c0,3.6,0.2,7.3,0.2,10.9c0,68.5,0,137.1,0,205.6
		c0,6.7-0.1,13.4-0.2,20.1c0,3.1,1.2,4.5,4.3,4.7c2.2,0.1,4.5,0,6.7,0h137.5c5.4,0,10.7,0.2,16.1-0.1c1.7-0.1,3.8-0.8,5-2
		c4.4-4.6,8.4-9.5,12.5-14.4c5.9-6.9,11.6-14,17.5-20.9c6.5-7.6,13.1-15.1,19.5-22.7c6.8-8,13.4-16.1,20.2-24.1
		c7.2-8.4,14.5-16.7,21.7-25.2c8.6-10.1,17-20.5,25.6-30.6c6.5-7.6,13.2-15,19.6-22.6c6.9-8.2,13.5-16.5,20.4-24.7
		c7.2-8.5,14.4-16.8,21.8-25.1c1.2-1.2,2.7-1.9,4.4-2.2c2.7-0.4,5.5-0.2,8.2-0.2c35.2,0,70.4,0,105.5,0c4.6,0,9.1,0.2,13.7,0.2
		c3,0,4.6-1.9,4.5-4.8c-0.1-2.7-0.2-5.5-0.2-8.2C525.8,245,525.7,208.4,525.7,171.8z"/>
</g>
</svg>
